<svg xmlns="http://www.w3.org/2000/svg" viewBox="0 0 399.62 556"><defs><style>.cls-1{fill:#fff;}.cls-2{fill:none;}.cls-2,.cls-3{stroke:#000;stroke-miterlimit:10;stroke-width:9px;}.cls-3{fill:#070000;}</style></defs><title>Asset 1</title><g id="Layer_2" data-name="Layer 2"><g id="Layer_1-2" data-name="Layer 1"><rect class="cls-1" x="4.5" y="4.5" width="284" height="547" rx="45.5"/><path d="M243,9a41,41,0,0,1,41,41V506a41,41,0,0,1-41,41H50A41,41,0,0,1,9,506V50A41,41,0,0,1,50,9H243m0-9H50A50.15,50.15,0,0,0,0,50V506a50.15,50.15,0,0,0,50,50H243a50.15,50.15,0,0,0,50-50V50A50.15,50.15,0,0,0,243,0Z"/><rect x="4.5" y="70.5" width="284" height="25"/><path d="M284,75V91H9V75H284m9-9H0v34H293V66Z"/><rect x="4.5" y="455.5" width="284" height="25"/><path d="M284,460v16H9V460H284m9-9H0v34H293V451Z"/><path d="M147,498a16,16,0,1,1-16,16,16,16,0,0,1,16-16m0-9a25,25,0,1,0,25,25,25,25,0,0,0-25-25Z"/><path class="cls-2" d="M243.5,414.5l56-59s52-2,66-48c0,0,85-116-33-137,0,0-139-37-150,68l64,115Z"/><path class="cls-2" d="M240.5,207.5s10,80,62,101l21-13-17-18L293,278s-42.5-61.5-34.5-64.5l23-12-17-15Z"/><path class="cls-3" d="M288.5,213.5s32,11,35,34l18-17s-25-33-39-33S288.5,213.5,288.5,213.5Z"/><path class="cls-3" d="M307.5,188.5s32,11,35,34l18-17s-25-33-39-33S307.5,188.5,307.5,188.5Z"/></g></g></svg>