<svg xmlns="http://www.w3.org/2000/svg" viewBox="0 0 293.56 345"><defs><style>.cls-1{fill:#2b3de2;}.cls-2{fill:#2de046;}.cls-3{fill:#e02d2d;}.cls-4{font-size:34.35px;font-family:AdobeMyungjoStd-Medium-KSCpc-EUC-H, Adobe Myungjo Std;}</style></defs><title>Asset 11</title><g id="Layer_2" data-name="Layer 2"><g id="Layer_1-2" data-name="Layer 1"><path class="cls-1" d="M173.7,51.92c-70-32.27-144.87-19-167.31,29.65s16.08,114.24,86,146.51,144.87,19,167.31-29.65S243.65,84.19,173.7,51.92ZM109,185.05c-37.87-17.46-58.9-52.56-47-78.39s52.27-32.6,90.13-15.13,58.9,52.56,47,78.38S146.84,202.52,109,185.05Z"/><path class="cls-2" d="M96.56,103s40-77,37-103l34,6s-39,107-50,109S96.56,103,96.56,103Z"/><path class="cls-3" d="M159.56,124s110-83,124-74l10,20s-130,58-126,63S159.56,124,159.56,124Z"/><text class="cls-4" transform="translate(58.54 298.69) scale(0.69 1)">인천광역시 서구 <tspan x="0" y="41.22">연희동</tspan></text></g></g></svg>