<svg xmlns="http://www.w3.org/2000/svg" viewBox="0 0 159.88 318.01"><defs><style>.cls-1{fill:#fff;}.cls-1,.cls-2{stroke:#000;stroke-miterlimit:10;stroke-width:5px;}.cls-2{fill:none;}.cls-3{font-size:32.06px;font-family:MJemokGothic;}</style></defs><title>ㅁㄴㅇㄻㄴㅇㄹ</title><g id="Layer_2" data-name="Layer 2"><g id="Layer_1-2" data-name="Layer 1"><polygon class="cls-1" points="63.4 2.5 27.32 35.34 27.32 212.5 143.32 212.5 143.32 2.5 63.4 2.5"/><polyline class="cls-1" points="26.82 35 68.82 35 68.82 2"/><line class="cls-2" x1="47.82" y1="100" x2="116.82" y2="100"/><line class="cls-2" x1="47.82" y1="126" x2="116.82" y2="126"/><line class="cls-2" x1="47.82" y1="154" x2="116.82" y2="154"/><polygon class="cls-2" points="122.6 222.09 114.22 228.69 104.6 230.12 96.8 225.92 93.29 217.43 95.19 207.33 101.9 198.84 111.28 194.66 120.35 196.1 126.25 202.72 127.08 212.4 122.6 222.09"/><polyline class="cls-2" points="104.82 230 93.82 261 104.82 261 116.82 230 137.82 261 149.82 252 121.82 222"/><text class="cls-3" transform="translate(0 315.06) scale(0.66 1)">각종증명서 발급</text></g></g></svg>